<?xml version="1.0"?>
<svg width="335" height="180" xmlns="http://www.w3.org/2000/svg" xmlns:svg="http://www.w3.org/2000/svg">

 <g class="layer">
  <title>Layer 1</title>
  <g fill="#ffffff" id="SvgjsG2224" transform="matrix(1,0,0,1,0,0)"/>
  <g fill="#7b3fc9" id="SvgjsG2225" transform="matrix(1.2304 0 0 1.2304 106.924 -2.37644)">
   <g id="svg_1">
    <g id="svg_2">
     <g id="svg_3">
      <path d="m7.69,23.377026c0.14,13.081 2.494,26.271 0.558,39.332c-0.486,3.277 -1.392,6.748 -0.482,10.02c0.635,2.282 3.841,2.363 5.707,2.534c4.341,0.399 8.872,-0.016 13.201,-0.328c6.716,-0.483 13.455,-0.217 20.186,-0.351c13.321,-0.264 26.618,1.59 39.854,-0.56c0.261,-0.042 0.472,-0.349 0.459,-0.603c-0.416,-8.014 0.892,-15.918 1.363,-23.899c0.522,-8.855 -0.869,-17.728 -1.363,-26.554c-0.02,-0.36 -0.27,-0.599 -0.625,-0.625c-6.229,-0.456 -12.45,-0.125 -18.686,-0.03c-7,0.106 -13.897,-0.979 -20.906,-0.725c-6.357,0.231 -12.666,1.186 -19.022,1.441c-6.535,0.263 -13.093,-0.646 -19.617,-0.891c-0.807,-0.03 -0.804,1.22 0,1.25c10.499,0.394 20.5,0.972 31.002,0.008c11.46,-1.052 22.714,0.353 34.178,0.043c2.499,-0.068 4.995,-0.112 7.495,-0.105c4.567,0.013 4.979,0.987 5.318,5.375c0.44,5.685 1.001,11.34 1.067,17.047c0.064,5.559 -0.708,11.107 -1.211,16.633c-0.223,2.448 -0.328,4.896 -0.366,7.354c-0.071,4.642 -4.132,3.765 -7.815,4.024c-10.946,0.771 -22.023,-0.616 -33.006,-0.397c-9.371,0.186 -18.739,0.636 -28.105,0.736c-1.778,0.019 -3.548,-0.062 -5.31,-0.316c-3.312,-0.479 -2.994,-3.98 -2.771,-6.338c0.341,-3.588 0.952,-7.016 1.145,-10.629c0.6,-11.217 -0.875,-22.25 -0.995,-33.448c-0.011,-0.803 -1.261,-0.804 -1.253,0.002l0,0z" id="svg_4"/>
     </g>
    </g>
    <g id="svg_5">
     <g id="svg_6">
      <path d="m75.479,20.937026c-15.72,-6.363 -32.883,-7.594 -48.818,-13.277c-0.761,-0.271 -1.086,0.937 -0.332,1.205c15.935,5.683 33.098,6.914 48.818,13.277c0.747,0.303 1.069,-0.907 0.332,-1.205l0,0z" id="svg_7"/>
     </g>
    </g>
    <g id="svg_8">
     <g id="svg_9">
      <path d="m74.589,21.262026c1.229,0.758 2.374,1.807 3.826,2.105c0.787,0.162 1.122,-1.043 0.332,-1.205c-1.332,-0.274 -2.398,-1.283 -3.527,-1.979c-0.688,-0.425 -1.316,0.657 -0.631,1.079l0,0z" id="svg_10"/>
     </g>
    </g>
    <g id="svg_11">
     <g id="svg_12">
      <path d="m72.282,37.030026c-5.764,-5.925 -13.843,0.436 -16.724,5.838c-3.535,6.627 0.62,14.219 6.865,17.214c5.71,2.738 14.39,0.469 16.91,-5.745c1.462,-3.607 1.605,-7.917 -0.212,-11.462c-1.068,-2.084 -2.212,-3.991 -3.809,-5.707c-1.573,-1.689 -4.12,-1.589 -6.015,-2.688c-0.699,-0.405 -1.328,0.675 -0.631,1.079c2.842,1.649 5.162,1.433 7.41,4.474c2.007,2.716 3.041,5.854 3.133,9.205c0.208,7.644 -7.676,11.842 -14.377,10.366c-5.531,-1.218 -8.992,-6.318 -9.319,-11.716c-0.409,-6.741 9.829,-16.202 15.886,-9.976c0.562,0.58 1.445,-0.305 0.883,-0.882l0,0z" id="svg_13"/>
     </g>
    </g>
    <g id="svg_14">
     <g id="svg_15">
      <path d="m15.464,34.624026c4.978,-0.276 9.923,-0.926 14.911,-1.021c5.187,-0.1 10.397,-1.121 15.562,-0.227c0.788,0.137 1.125,-1.068 0.332,-1.205c-4.265,-0.739 -8.521,-0.249 -12.807,0.063c-5.981,0.434 -12.007,0.808 -17.998,1.141c-0.801,0.044 -0.805,1.294 0,1.249l0,0z" id="svg_16"/>
     </g>
    </g>
    <g id="svg_17">
     <g id="svg_18">
      <path d="m16.448,46.858026c9.924,-1.937 21.482,-3.851 31.124,0.204c0.743,0.313 1.063,-0.897 0.332,-1.205c-9.864,-4.149 -21.624,-2.188 -31.788,-0.204c-0.791,0.154 -0.455,1.359 0.332,1.205l0,0z" id="svg_19"/>
     </g>
    </g>
    <g id="svg_20">
     <g id="svg_21">
      <path d="m16.077,61.791026c10.736,0.215 21.404,-2.637 32.107,-0.839c0.788,0.132 1.126,-1.072 0.332,-1.205c-10.829,-1.819 -21.578,1.012 -32.439,0.794c-0.806,-0.016 -0.805,1.234 0,1.25l0,0z" id="svg_22"/>
     </g>
    </g>
    <g id="svg_23">
     <g id="svg_24">
      <path d="m58.564,69.349026c6.685,-0.319 13.394,0.456 19.979,-1.043c0.786,-0.179 0.453,-1.384 -0.332,-1.205c-6.474,1.474 -13.077,0.685 -19.646,0.999c-0.803,0.037 -0.807,1.288 -0.001,1.249l0,0z" id="svg_25"/>
     </g>
    </g>
    <g id="svg_26">
     <g id="svg_27">
      <path d="m81.274,26.657026c-1.376,0.503 -2.344,1.734 -2.098,3.25c0.225,1.381 1.43,2.292 2.817,2.138c1.636,-0.182 3.709,-1.72 3.328,-3.568c-0.392,-1.902 -2.568,-2.637 -4.29,-2.455c-0.793,0.084 -0.801,1.334 0,1.25c1.051,-0.111 2.539,0.09 3.003,1.22c0.489,1.19 -1.229,2.213 -2.205,2.322c-0.757,0.084 -1.27,-0.406 -1.427,-1.109c-0.189,-0.845 0.465,-1.572 1.204,-1.842c0.751,-0.276 0.427,-1.484 -0.332,-1.206l0,0z" id="svg_28"/>
     </g>
    </g>
   </g>
  </g>
  <g fill="#1d6008" id="SvgjsG2226" transform="matrix(3.01205 0 0 3.01205 -2.77108 106.976)">
   <path d="m15.6,8.952c0.84,0.84 1.3,1.94 1.3,3.14l0,4.92l-1.72,0l0,-4.92c0,-1.5 -1.22,-2.74 -2.7,-2.74c-1.5,0 -2.72,1.24 -2.72,2.74l0,4.92l-1.72,0l0,-4.92c0,-1.5 -1.2,-2.74 -2.7,-2.74c-1.48,0 -2.7,1.24 -2.7,2.74l0,4.92l-1.72,0l0,-9.16l1.72,0l0,0.88c0.78,-0.6 1.72,-1.06 2.7,-1.06c1.18,0 2.3,0.52 3.14,1.36c0.16,0.16 0.3,0.32 0.42,0.5c0.14,-0.18 0.28,-0.34 0.44,-0.5c0.84,-0.84 1.96,-1.36 3.14,-1.36s2.28,0.44 3.12,1.28zm11.92,-1.1l-5.84,14.4l-1.86,0l2.14,-5.24l-3.72,-9.16l1.86,0l2.78,6.88l2.78,-6.88l1.86,0zm7.48,1.58l5.5,7.58l-2.06,0l-5.44,-7.48l-2.04,0l0,7.48l-1.72,0l0,-14.24l4.94,0c0.9,0 1.74,0.36 2.38,1s1,1.48 1,2.38c0,1.58 -1.1,2.9 -2.56,3.28zm-4.04,-4.94l0,3.32l3.22,0c0.92,0 1.66,-0.74 1.66,-1.66s-0.74,-1.66 -1.66,-1.66l-3.22,0zm18.26,4.42l0,-1.06l1.72,0l0,9.16l-1.72,0l0,-1.06c-0.86,0.72 -1.94,1.26 -3.08,1.26c-1.28,0 -2.48,-0.48 -3.4,-1.38c-0.9,-0.92 -1.4,-2.12 -1.4,-3.4s0.5,-2.48 1.4,-3.4c0.92,-0.9 2.12,-1.38 3.4,-1.38c1.14,0 2.22,0.54 3.08,1.26zm-3.08,6.62c1.7,0 3.08,-1.4 3.08,-3.1s-1.38,-3.1 -3.08,-3.1s-3.08,1.4 -3.08,3.1s1.38,3.1 3.08,3.1zm14.24,-6.62l0,-6.58l1.72,0l0,14.68l-1.72,0l0,-1.06c-0.86,0.72 -1.94,1.26 -3.08,1.26c-1.28,0 -2.48,-0.48 -3.4,-1.38c-0.9,-0.92 -1.4,-2.12 -1.4,-3.4s0.5,-2.48 1.4,-3.4c0.92,-0.9 2.12,-1.38 3.4,-1.38c1.14,0 2.22,0.54 3.08,1.26zm-3.08,6.62c1.7,0 3.08,-1.4 3.08,-3.1s-1.38,-3.1 -3.08,-3.1s-3.08,1.4 -3.08,3.1s1.38,3.1 3.08,3.1zm8.28,-9.16c-0.64,0 -1.14,-0.52 -1.14,-1.14s0.5,-1.12 1.14,-1.12c0.62,0 1.12,0.5 1.12,1.12s-0.5,1.14 -1.12,1.14zm-0.86,10.64l0,-9.16l1.72,0l0,9.16l-1.72,0zm12.12,-7.98c0.92,0.92 1.42,2.12 1.42,3.4s-0.5,2.48 -1.42,3.4c-0.9,0.9 -2.1,1.4 -3.38,1.4s-2.48,-0.5 -3.4,-1.4c-0.9,-0.92 -1.4,-2.12 -1.4,-3.4s0.5,-2.48 1.4,-3.4c0.92,-0.9 2.12,-1.38 3.4,-1.38s2.48,0.48 3.38,1.38zm-3.38,6.48c1.7,0 3.08,-1.38 3.08,-3.08s-1.38,-3.06 -3.08,-3.06s-3.08,1.36 -3.08,3.06s1.38,3.08 3.08,3.08zm7.32,-0.78c0.62,0 1.12,0.52 1.12,1.14s-0.5,1.14 -1.12,1.14c-0.64,0 -1.14,-0.52 -1.14,-1.14s0.5,-1.14 1.14,-1.14zm4.64,2.28l-1.72,0l0,-14.68l1.72,0l0,14.68zm3.74,-10.64c-0.64,0 -1.14,-0.52 -1.14,-1.14s0.5,-1.12 1.14,-1.12c0.62,0 1.12,0.5 1.12,1.12s-0.5,1.14 -1.12,1.14zm-0.86,10.64l0,-9.16l1.72,0l0,9.16l-1.72,0zm11.14,-9.16l1.86,0l-3.72,9.16l-1.86,0l-3.72,-9.16l1.86,0l2.8,6.88l2.78,-6.88zm11.54,3.54c0.14,0.82 0.12,1.28 0.1,1.46l-7.06,0l0,0.04c0.2,1.52 1.34,2.66 2.66,2.68c0.82,-0.04 1.66,-0.38 2.24,-0.96l1.44,0.86c-0.36,0.4 -0.76,0.74 -1.22,1.02c-0.7,0.42 -1.56,0.64 -2.42,0.68c-1.2,0 -2.3,-0.5 -3.1,-1.4c-0.72,-0.78 -1.16,-1.78 -1.24,-2.88c-0.02,-0.14 -0.02,-0.28 -0.02,-0.42c0,-0.36 0.04,-0.72 0.12,-1.08c0.18,-0.84 0.58,-1.6 1.14,-2.22c0.8,-0.88 1.92,-1.38 3.1,-1.38c1.2,0 2.3,0.5 3.12,1.38c0.56,0.62 0.98,1.38 1.14,2.22zm-6.82,0.02l5.12,0l-0.02,-0.04c-0.4,-1.18 -1.42,-1.98 -2.54,-1.98c-1.1,0 -2.12,0.8 -2.54,1.98l-0.02,0.04z" id="svg_29"/>
  </g>
 </g>
</svg>