<svg width="332" height="193.42880249023438">
    <defs id="SvgjsDefs2223"></defs>
    <g id="SvgjsG2224" featurekey="root" fill="#ffffff" transform="matrix(1,0,0,1,0,0)"></g>
    <g id="SvgjsG2225" featurekey="symbol1" fill="#7b3fc9" transform="matrix(1.2303954768847918,0,0,1.2303954768847918,106.92381570258058,-2.3764436884641533)">
        <g>
            <g>
                <g>
                    <path d="M7.69,29.879C7.83,42.96,10.184,56.15,8.248,69.211c-0.486,3.277-1.392,6.748-0.482,10.02     c0.635,2.282,3.841,2.363,5.707,2.534c4.341,0.399,8.872-0.016,13.201-0.328c6.716-0.483,13.455-0.217,20.186-0.351     c13.321-0.264,26.618,1.59,39.854-0.56c0.261-0.042,0.472-0.349,0.459-0.603c-0.416-8.014,0.892-15.918,1.363-23.899     c0.522-8.855-0.869-17.728-1.363-26.554c-0.02-0.36-0.27-0.599-0.625-0.625c-6.229-0.456-12.45-0.125-18.686-0.03     c-7,0.106-13.897-0.979-20.906-0.725c-6.357,0.231-12.666,1.186-19.022,1.441c-6.535,0.263-13.093-0.646-19.617-0.891     c-0.807-0.03-0.804,1.22,0,1.25c10.499,0.394,20.5,0.972,31.002,0.008c11.46-1.052,22.714,0.353,34.178,0.043     c2.499-0.068,4.995-0.112,7.495-0.105c4.567,0.013,4.979,0.987,5.318,5.375c0.44,5.685,1.001,11.34,1.067,17.047     c0.064,5.559-0.708,11.107-1.211,16.633c-0.223,2.448-0.328,4.896-0.366,7.354c-0.071,4.642-4.132,3.765-7.815,4.024     c-10.946,0.771-22.023-0.616-33.006-0.397c-9.371,0.186-18.739,0.636-28.105,0.736c-1.778,0.019-3.548-0.062-5.31-0.316     c-3.312-0.479-2.994-3.98-2.771-6.338c0.341-3.588,0.952-7.016,1.145-10.629c0.6-11.217-0.875-22.25-0.995-33.448     C8.932,29.074,7.682,29.073,7.69,29.879L7.69,29.879z"></path>
                </g>
            </g>
            <g>
                <g>
                    <path d="M75.479,27.439c-15.72-6.363-32.883-7.594-48.818-13.277c-0.761-0.271-1.086,0.937-0.332,1.205     c15.935,5.683,33.098,6.914,48.818,13.277C75.894,28.947,76.216,27.737,75.479,27.439L75.479,27.439z"></path>
                </g>
            </g>
            <g>
                <g>
                    <path d="M74.589,27.764c1.229,0.758,2.374,1.807,3.826,2.105c0.787,0.162,1.122-1.043,0.332-1.205     c-1.332-0.274-2.398-1.283-3.527-1.979C74.532,26.26,73.904,27.342,74.589,27.764L74.589,27.764z"></path>
                </g>
            </g>
            <g>
                <g>
                    <path d="M72.282,43.532c-5.764-5.925-13.843,0.436-16.724,5.838c-3.535,6.627,0.62,14.219,6.865,17.214     c5.71,2.738,14.39,0.469,16.91-5.745c1.462-3.607,1.605-7.917-0.212-11.462c-1.068-2.084-2.212-3.991-3.809-5.707     c-1.573-1.689-4.12-1.589-6.015-2.688c-0.699-0.405-1.328,0.675-0.631,1.079c2.842,1.649,5.162,1.433,7.41,4.474     c2.007,2.716,3.041,5.854,3.133,9.205c0.208,7.644-7.676,11.842-14.377,10.366c-5.531-1.218-8.992-6.318-9.319-11.716     c-0.409-6.741,9.829-16.202,15.886-9.976C71.961,44.994,72.844,44.109,72.282,43.532L72.282,43.532z"></path>
                </g>
            </g>
            <g>
                <g>
                    <path d="M15.464,41.126c4.978-0.276,9.923-0.926,14.911-1.021c5.187-0.1,10.397-1.121,15.562-0.227     c0.788,0.137,1.125-1.068,0.332-1.205c-4.265-0.739-8.521-0.249-12.807,0.063c-5.981,0.434-12.007,0.808-17.998,1.141     C14.663,39.921,14.659,41.171,15.464,41.126L15.464,41.126z"></path>
                </g>
            </g>
            <g>
                <g>
                    <path d="M16.448,53.36c9.924-1.937,21.482-3.851,31.124,0.204c0.743,0.313,1.063-0.897,0.332-1.205     c-9.864-4.149-21.624-2.188-31.788-0.204C15.325,52.309,15.661,53.514,16.448,53.36L16.448,53.36z"></path>
                </g>
            </g>
            <g>
                <g>
                    <path d="M16.077,68.293c10.736,0.215,21.404-2.637,32.107-0.839c0.788,0.132,1.126-1.072,0.332-1.205     c-10.829-1.819-21.578,1.012-32.439,0.794C15.271,67.027,15.272,68.277,16.077,68.293L16.077,68.293z"></path>
                </g>
            </g>
            <g>
                <g>
                    <path d="M58.564,75.851c6.685-0.319,13.394,0.456,19.979-1.043c0.786-0.179,0.453-1.384-0.332-1.205     c-6.474,1.474-13.077,0.685-19.646,0.999C57.762,74.639,57.758,75.89,58.564,75.851L58.564,75.851z"></path>
                </g>
            </g>
            <g>
                <g>
                    <path d="M81.274,33.159c-1.376,0.503-2.344,1.734-2.098,3.25c0.225,1.381,1.43,2.292,2.817,2.138     c1.636-0.182,3.709-1.72,3.328-3.568c-0.392-1.902-2.568-2.637-4.29-2.455c-0.793,0.084-0.801,1.334,0,1.25     c1.051-0.111,2.539,0.09,3.003,1.22c0.489,1.19-1.229,2.213-2.205,2.322c-0.757,0.084-1.27-0.406-1.427-1.109     c-0.189-0.845,0.465-1.572,1.204-1.842C82.357,34.089,82.033,32.881,81.274,33.159L81.274,33.159z"></path>
                </g>
            </g>
        </g>
    </g>
    <g id="SvgjsG2226" featurekey="text1" fill="#1d6008" transform="matrix(3.0120481812348876,0,0,3.0120481812348876,-2.7710816840241455,106.97590459503455)">
        <path d="M15.6 11.94 c0.84 0.84 1.3 1.94 1.3 3.14 l0 4.92 l-1.72 0 l0 -4.92 c0 -1.5 -1.22 -2.74 -2.7 -2.74 c-1.5 0 -2.72 1.24 -2.72 2.74 l0 4.92 l-1.72 0 l0 -4.92 c0 -1.5 -1.2 -2.74 -2.7 -2.74 c-1.48 0 -2.7 1.24 -2.7 2.74 l0 4.92 l-1.72 0 l0 -9.16 l1.72 0 l0 0.88 c0.78 -0.6 1.72 -1.06 2.7 -1.06 c1.18 0 2.3 0.52 3.14 1.36 c0.16 0.16 0.3 0.32 0.42 0.5 c0.14 -0.18 0.28 -0.34 0.44 -0.5 c0.84 -0.84 1.96 -1.36 3.14 -1.36 s2.28 0.44 3.12 1.28 z M27.52 10.84 l-5.84 14.4 l-1.86 0 l2.14 -5.24 l-3.72 -9.16 l1.86 0 l2.78 6.88 l2.78 -6.88 l1.86 0 z M35 12.42 l5.5 7.58 l-2.06 0 l-5.44 -7.48 l-2.04 0 l0 7.48 l-1.72 0 l0 -14.24 l4.94 0 c0.9 0 1.74 0.36 2.38 1 s1 1.48 1 2.38 c0 1.58 -1.1 2.9 -2.56 3.28 z M30.96 7.48 l0 3.32 l3.22 0 c0.92 0 1.66 -0.74 1.66 -1.66 s-0.74 -1.66 -1.66 -1.66 l-3.22 0 z M49.22 11.9 l0 -1.06 l1.72 0 l0 9.16 l-1.72 0 l0 -1.06 c-0.86 0.72 -1.94 1.26 -3.08 1.26 c-1.28 0 -2.48 -0.48 -3.4 -1.38 c-0.9 -0.92 -1.4 -2.12 -1.4 -3.4 s0.5 -2.48 1.4 -3.4 c0.92 -0.9 2.12 -1.38 3.4 -1.38 c1.14 0 2.22 0.54 3.08 1.26 z M46.14 18.52 c1.7 0 3.08 -1.4 3.08 -3.1 s-1.38 -3.1 -3.08 -3.1 s-3.08 1.4 -3.08 3.1 s1.38 3.1 3.08 3.1 z M60.379999999999995 11.9 l0 -6.58 l1.72 0 l0 14.68 l-1.72 0 l0 -1.06 c-0.86 0.72 -1.94 1.26 -3.08 1.26 c-1.28 0 -2.48 -0.48 -3.4 -1.38 c-0.9 -0.92 -1.4 -2.12 -1.4 -3.4 s0.5 -2.48 1.4 -3.4 c0.92 -0.9 2.12 -1.38 3.4 -1.38 c1.14 0 2.22 0.54 3.08 1.26 z M57.3 18.52 c1.7 0 3.08 -1.4 3.08 -3.1 s-1.38 -3.1 -3.08 -3.1 s-3.08 1.4 -3.08 3.1 s1.38 3.1 3.08 3.1 z M65.58 9.36 c-0.64 0 -1.14 -0.52 -1.14 -1.14 s0.5 -1.12 1.14 -1.12 c0.62 0 1.12 0.5 1.12 1.12 s-0.5 1.14 -1.12 1.14 z M64.72 20 l0 -9.16 l1.72 0 l0 9.16 l-1.72 0 z M76.84 12.02 c0.92 0.92 1.42 2.12 1.42 3.4 s-0.5 2.48 -1.42 3.4 c-0.9 0.9 -2.1 1.4 -3.38 1.4 s-2.48 -0.5 -3.4 -1.4 c-0.9 -0.92 -1.4 -2.12 -1.4 -3.4 s0.5 -2.48 1.4 -3.4 c0.92 -0.9 2.12 -1.38 3.4 -1.38 s2.48 0.48 3.38 1.38 z M73.46 18.5 c1.7 0 3.08 -1.38 3.08 -3.08 s-1.38 -3.06 -3.08 -3.06 s-3.08 1.36 -3.08 3.06 s1.38 3.08 3.08 3.08 z M80.78 17.72 c0.62 0 1.12 0.52 1.12 1.14 s-0.5 1.14 -1.12 1.14 c-0.64 0 -1.14 -0.52 -1.14 -1.14 s0.5 -1.14 1.14 -1.14 z M85.42 20 l-1.72 0 l0 -14.68 l1.72 0 l0 14.68 z M89.16000000000001 9.36 c-0.64 0 -1.14 -0.52 -1.14 -1.14 s0.5 -1.12 1.14 -1.12 c0.62 0 1.12 0.5 1.12 1.12 s-0.5 1.14 -1.12 1.14 z M88.30000000000001 20 l0 -9.16 l1.72 0 l0 9.16 l-1.72 0 z M99.44000000000001 10.84 l1.86 0 l-3.72 9.16 l-1.86 0 l-3.72 -9.16 l1.86 0 l2.8 6.88 z M110.98000000000002 14.379999999999999 c0.14 0.82 0.12 1.28 0.1 1.46 l-7.06 0 l0 0.04 c0.2 1.52 1.34 2.66 2.66 2.68 c0.82 -0.04 1.66 -0.38 2.24 -0.96 l1.44 0.86 c-0.36 0.4 -0.76 0.74 -1.22 1.02 c-0.7 0.42 -1.56 0.64 -2.42 0.68 c-1.2 0 -2.3 -0.5 -3.1 -1.4 c-0.72 -0.78 -1.16 -1.78 -1.24 -2.88 c-0.02 -0.14 -0.02 -0.28 -0.02 -0.42 c0 -0.36 0.04 -0.72 0.12 -1.08 c0.18 -0.84 0.58 -1.6 1.14 -2.22 c0.8 -0.88 1.92 -1.38 3.1 -1.38 c1.2 0 2.3 0.5 3.12 1.38 c0.56 0.62 0.98 1.38 1.14 2.22 z M104.16000000000001 14.4 l5.12 0 l-0.02 -0.04 c-0.4 -1.18 -1.42 -1.98 -2.54 -1.98 c-1.1 0 -2.12 0.8 -2.54 1.98 z"></path>
    </g>
</svg>
